<svg xmlns="http://www.w3.org/2000/svg" width="900" height="88" viewBox="0 0 900 88" role="img" aria-label="Project status: standup-sync, v0.7.0, suite green, 24 commits, updated 8 days ago"><defs><linearGradient id="sb" x1="0" y1="0" x2="1" y2="1"><stop offset="0%" stop-color="#070B16"/><stop offset="100%" stop-color="#161E3A"/></linearGradient><clipPath id="sbc"><rect width="900" height="88" rx="16"/></clipPath></defs><style>.n{font-family:'Segoe UI',Ubuntu,'Helvetica Neue',Helvetica,Arial,sans-serif;} .m{font-family:ui-monospace,'SF Mono','Cascadia Code','Fira Code',Menlo,Consolas,monospace;}@keyframes pulse{0%,100%{opacity:1}50%{opacity:.35}}.live{animation:pulse 2.4s ease-in-out infinite;}</style><g clip-path="url(#sbc)"><rect width="900" height="88" fill="url(#sb)"/><line x1="0" y1="0" x2="0" y2="88" stroke="#22D3EE" stroke-opacity="0.04"/><line x1="30" y1="0" x2="30" y2="88" stroke="#22D3EE" stroke-opacity="0.04"/><line x1="60" y1="0" x2="60" y2="88" stroke="#22D3EE" stroke-opacity="0.04"/><line x1="90" y1="0" x2="90" y2="88" stroke="#22D3EE" stroke-opacity="0.04"/><line x1="120" y1="0" x2="120" y2="88" stroke="#22D3EE" stroke-opacity="0.04"/><line x1="150" y1="0" x2="150" y2="88" stroke="#22D3EE" stroke-opacity="0.04"/><line x1="180" y1="0" x2="180" y2="88" stroke="#22D3EE" stroke-opacity="0.04"/><line x1="210" y1="0" x2="210" y2="88" stroke="#22D3EE" stroke-opacity="0.04"/><line x1="240" y1="0" x2="240" y2="88" stroke="#22D3EE" stroke-opacity="0.04"/><line x1="270" y1="0" x2="270" y2="88" stroke="#22D3EE" stroke-opacity="0.04"/><line x1="300" y1="0" x2="300" y2="88" stroke="#22D3EE" stroke-opacity="0.04"/><line x1="330" y1="0" x2="330" y2="88" stroke="#22D3EE" stroke-opacity="0.04"/><line x1="360" y1="0" x2="360" y2="88" stroke="#22D3EE" stroke-opacity="0.04"/><line x1="390" y1="0" x2="390" y2="88" stroke="#22D3EE" stroke-opacity="0.04"/><line x1="420" y1="0" x2="420" y2="88" stroke="#22D3EE" stroke-opacity="0.04"/><line x1="450" y1="0" x2="450" y2="88" stroke="#22D3EE" stroke-opacity="0.04"/><line x1="480" y1="0" x2="480" y2="88" stroke="#22D3EE" stroke-opacity="0.04"/><line x1="510" y1="0" x2="510" y2="88" stroke="#22D3EE" stroke-opacity="0.04"/><line x1="540" y1="0" x2="540" y2="88" stroke="#22D3EE" stroke-opacity="0.04"/><line x1="570" y1="0" x2="570" y2="88" stroke="#22D3EE" stroke-opacity="0.04"/><line x1="600" y1="0" x2="600" y2="88" stroke="#22D3EE" stroke-opacity="0.04"/><line x1="630" y1="0" x2="630" y2="88" stroke="#22D3EE" stroke-opacity="0.04"/><line x1="660" y1="0" x2="660" y2="88" stroke="#22D3EE" stroke-opacity="0.04"/><line x1="690" y1="0" x2="690" y2="88" stroke="#22D3EE" stroke-opacity="0.04"/><line x1="720" y1="0" x2="720" y2="88" stroke="#22D3EE" stroke-opacity="0.04"/><line x1="750" y1="0" x2="750" y2="88" stroke="#22D3EE" stroke-opacity="0.04"/><line x1="780" y1="0" x2="780" y2="88" stroke="#22D3EE" stroke-opacity="0.04"/><line x1="810" y1="0" x2="810" y2="88" stroke="#22D3EE" stroke-opacity="0.04"/><line x1="840" y1="0" x2="840" y2="88" stroke="#22D3EE" stroke-opacity="0.04"/><line x1="870" y1="0" x2="870" y2="88" stroke="#22D3EE" stroke-opacity="0.04"/><text class="m" x="26" y="26" font-size="10" fill="#94A3B8" letter-spacing="2.4">FEATURED PROJECT</text><rect x="26" y="43" width="135" height="30" rx="15" fill="#22D3EE" fill-opacity="0.10" stroke="#22D3EE" stroke-opacity="0.42"/><circle class="live" cx="42" cy="58" r="3.2" fill="#22D3EE"/><text class="m" x="53" y="62" font-size="12" fill="#E8EEF7" font-weight="700">standup-sync</text><rect x="171" y="43" width="90" height="30" rx="15" fill="#A78BFA" fill-opacity="0.10" stroke="#A78BFA" stroke-opacity="0.42"/><circle class="live" cx="187" cy="58" r="3.2" fill="#A78BFA"/><text class="m" x="198" y="62" font-size="12" fill="#E8EEF7">v0.7.0</text><rect x="271" y="43" width="127" height="30" rx="15" fill="#34D399" fill-opacity="0.10" stroke="#34D399" stroke-opacity="0.42"/><circle class="live" cx="287" cy="58" r="3.2" fill="#34D399"/><text class="m" x="298" y="62" font-size="12" fill="#E8EEF7">suite green</text><rect x="408" y="43" width="120" height="30" rx="15" fill="#FBBF24" fill-opacity="0.10" stroke="#FBBF24" stroke-opacity="0.42"/><circle class="live" cx="424" cy="58" r="3.2" fill="#FBBF24"/><text class="m" x="435" y="62" font-size="12" fill="#E8EEF7">24 commits</text><rect x="538" y="43" width="179" height="30" rx="15" fill="#94A3B8" fill-opacity="0.10" stroke="#94A3B8" stroke-opacity="0.42"/><circle class="live" cx="554" cy="58" r="3.2" fill="#94A3B8"/><text class="m" x="565" y="62" font-size="12" fill="#E8EEF7">updated 8 days ago</text></g><rect x="0.5" y="0.5" width="899" height="87" rx="16" fill="none" stroke="#22D3EE" stroke-opacity="0.20"/></svg>